<svg xmlns="http://www.w3.org/2000/svg" width="179.355" height="49.487" viewBox="0 0 179.355 49.487">
  <g id="SW_Logo_05_1_" data-name="SW_Logo_05 (1)" transform="translate(-49.473 -53.393)">
    <g id="Group_147483" data-name="Group 147483" transform="translate(107.289 67.08)">
      <path id="Path_55143" data-name="Path 55143" d="M276.917,111.568a2.626,2.626,0,0,0-1.176-1.966,4.532,4.532,0,0,0-2.6-.7,4.893,4.893,0,0,0-1.942.352,2.987,2.987,0,0,0-1.27.963,2.288,2.288,0,0,0-.451,1.384,2.006,2.006,0,0,0,.307,1.123,2.607,2.607,0,0,0,.811.789,5.571,5.571,0,0,0,1.083.525c.387.139.757.253,1.115.344l1.782.464a13.5,13.5,0,0,1,1.79.579,7.193,7.193,0,0,1,1.7.963,4.63,4.63,0,0,1,1.27,1.48,4.322,4.322,0,0,1,.485,2.112,4.866,4.866,0,0,1-.8,2.753,5.382,5.382,0,0,1-2.307,1.9,9.951,9.951,0,0,1-7.2.045,5.478,5.478,0,0,1-2.344-1.848,5.308,5.308,0,0,1-.936-2.846H269a2.785,2.785,0,0,0,.645,1.643,3.357,3.357,0,0,0,1.454.971,5.766,5.766,0,0,0,1.947.317,5.471,5.471,0,0,0,2.08-.371,3.413,3.413,0,0,0,1.438-1.035,2.436,2.436,0,0,0,.525-1.555,1.92,1.92,0,0,0-.459-1.328,3.52,3.52,0,0,0-1.238-.856,12.332,12.332,0,0,0-1.76-.6l-2.155-.587a8.35,8.35,0,0,1-3.47-1.755,3.931,3.931,0,0,1-1.278-3.065,4.552,4.552,0,0,1,.856-2.753,5.627,5.627,0,0,1,2.318-1.83,7.959,7.959,0,0,1,3.3-.656,7.822,7.822,0,0,1,3.275.651,5.528,5.528,0,0,1,2.24,1.787,4.538,4.538,0,0,1,.856,2.606h-2.654Z" transform="translate(-266.24 -106.045)" fill="#fff"/>
      <path id="Path_55144" data-name="Path 55144" d="M329.965,138.056a5.564,5.564,0,0,1-2.352-.485,3.892,3.892,0,0,1-1.662-1.411,4.037,4.037,0,0,1-.611-2.272,3.69,3.69,0,0,1,.445-1.907,3.283,3.283,0,0,1,1.2-1.184,6.224,6.224,0,0,1,1.694-.659,16.666,16.666,0,0,1,1.907-.339c.819-.1,1.486-.173,2-.237a2.866,2.866,0,0,0,1.112-.307.751.751,0,0,0,.347-.7V128.5a2.411,2.411,0,0,0-.656-1.808,2.681,2.681,0,0,0-1.947-.64,3.459,3.459,0,0,0-2.115.592,3.182,3.182,0,0,0-1.064,1.315l-2.5-.571a4.823,4.823,0,0,1,1.3-2.019,5.316,5.316,0,0,1,1.982-1.123,7.852,7.852,0,0,1,2.36-.352,8.545,8.545,0,0,1,1.742.192,5.229,5.229,0,0,1,1.728.7,3.854,3.854,0,0,1,1.323,1.448,5.046,5.046,0,0,1,.517,2.438v9.087h-2.6v-1.872h-.107a3.85,3.85,0,0,1-.776,1.016,4.123,4.123,0,0,1-1.328.829,5.178,5.178,0,0,1-1.942.331Zm.579-2.139a3.859,3.859,0,0,0,1.894-.437,3.093,3.093,0,0,0,1.2-1.144,2.948,2.948,0,0,0,.413-1.52v-1.763a1.375,1.375,0,0,1-.547.264,7.5,7.5,0,0,1-.923.205q-.516.084-1.008.152l-.819.112a6.555,6.555,0,0,0-1.411.331,2.43,2.43,0,0,0-1.016.664,1.669,1.669,0,0,0-.379,1.144,1.7,1.7,0,0,0,.731,1.494,3.208,3.208,0,0,0,1.862.5Z" transform="translate(-309.577 -118.774)" fill="#fff"/>
      <path id="Path_55145" data-name="Path 55145" d="M380.773,107.889a1.668,1.668,0,0,1-1.19-.467,1.483,1.483,0,0,1-.493-1.118,1.515,1.515,0,0,1,.493-1.128,1.749,1.749,0,0,1,2.379,0,1.524,1.524,0,0,1,0,2.246A1.668,1.668,0,0,1,380.773,107.889Zm-1.344,15.8V110h2.665v13.685Z" transform="translate(-348.991 -104.71)" fill="#fff"/>
      <path id="Path_55146" data-name="Path 55146" d="M406.236,115.538v2.139H398.76v-2.139Zm-5.47-3.278h2.665v12.947a2.31,2.31,0,0,0,.232,1.163,1.173,1.173,0,0,0,.6.525,2.251,2.251,0,0,0,.806.139,3.131,3.131,0,0,0,.56-.045c.16-.029.285-.053.373-.072l.48,2.2a5.1,5.1,0,0,1-.659.184,5.531,5.531,0,0,1-1.07.1,4.707,4.707,0,0,1-1.96-.373,3.355,3.355,0,0,1-1.47-1.211,3.568,3.568,0,0,1-.56-2.059v-13.5Z" transform="translate(-363.414 -110.246)" fill="#fff"/>
      <path id="Path_55147" data-name="Path 55147" d="M439.085,138.056a5.564,5.564,0,0,1-2.352-.485,3.892,3.892,0,0,1-1.662-1.411,4.037,4.037,0,0,1-.611-2.272,3.69,3.69,0,0,1,.445-1.907,3.284,3.284,0,0,1,1.2-1.184,6.222,6.222,0,0,1,1.694-.659,16.663,16.663,0,0,1,1.907-.339c.819-.1,1.486-.173,2-.237a2.865,2.865,0,0,0,1.112-.307.751.751,0,0,0,.347-.7V128.5a2.411,2.411,0,0,0-.656-1.808,2.681,2.681,0,0,0-1.947-.64,3.459,3.459,0,0,0-2.115.592,3.183,3.183,0,0,0-1.064,1.315l-2.5-.571a4.822,4.822,0,0,1,1.3-2.019,5.316,5.316,0,0,1,1.982-1.123,7.852,7.852,0,0,1,2.36-.352,8.545,8.545,0,0,1,1.742.192,5.229,5.229,0,0,1,1.728.7,3.854,3.854,0,0,1,1.323,1.448,5.046,5.046,0,0,1,.517,2.438v9.087h-2.6v-1.872h-.107a3.85,3.85,0,0,1-.776,1.016,4.123,4.123,0,0,1-1.328.829,5.178,5.178,0,0,1-1.942.331Zm.579-2.139a3.859,3.859,0,0,0,1.894-.437,3.093,3.093,0,0,0,1.2-1.144,2.948,2.948,0,0,0,.413-1.52v-1.763a1.376,1.376,0,0,1-.547.264,7.5,7.5,0,0,1-.923.205q-.516.084-1.008.152l-.819.112a6.554,6.554,0,0,0-1.411.331,2.43,2.43,0,0,0-1.016.664,1.669,1.669,0,0,0-.379,1.144,1.7,1.7,0,0,0,.731,1.494,3.207,3.207,0,0,0,1.862.5Z" transform="translate(-389.592 -118.774)" fill="#fff"/>
    </g>
    <g id="Group_147486" data-name="Group 147486" transform="translate(166.954 67.568)">
      <g id="Group_147484" data-name="Group 147484">
        <path id="Path_55148" data-name="Path 55148" d="M500.617,111.578a2.626,2.626,0,0,0-1.176-1.966,4.532,4.532,0,0,0-2.6-.7,4.892,4.892,0,0,0-1.942.352,2.988,2.988,0,0,0-1.27.963,2.288,2.288,0,0,0-.451,1.384,2.006,2.006,0,0,0,.307,1.123,2.608,2.608,0,0,0,.811.789,5.572,5.572,0,0,0,1.083.525c.387.139.758.253,1.115.344l1.782.464a13.5,13.5,0,0,1,1.79.579,7.193,7.193,0,0,1,1.7.963,4.631,4.631,0,0,1,1.27,1.48,4.322,4.322,0,0,1,.485,2.112,4.866,4.866,0,0,1-.8,2.753,5.383,5.383,0,0,1-2.307,1.9,9.951,9.951,0,0,1-7.2.045,5.478,5.478,0,0,1-2.344-1.848A5.309,5.309,0,0,1,489.94,120H492.7a2.785,2.785,0,0,0,.645,1.643,3.358,3.358,0,0,0,1.454.971,5.767,5.767,0,0,0,1.947.317,5.47,5.47,0,0,0,2.08-.371,3.412,3.412,0,0,0,1.438-1.035,2.436,2.436,0,0,0,.525-1.555,1.92,1.92,0,0,0-.459-1.328,3.519,3.519,0,0,0-1.238-.856,12.334,12.334,0,0,0-1.76-.6l-2.155-.587a8.35,8.35,0,0,1-3.47-1.755,3.931,3.931,0,0,1-1.278-3.065,4.552,4.552,0,0,1,.856-2.753,5.627,5.627,0,0,1,2.318-1.83,7.959,7.959,0,0,1,3.3-.656,7.822,7.822,0,0,1,3.275.651,5.527,5.527,0,0,1,2.24,1.787,4.538,4.538,0,0,1,.856,2.606h-2.654Z" transform="translate(-489.94 -106.54)" fill="#1d1d1b"/>
        <path id="Path_55149" data-name="Path 55149" d="M549.607,138.245,545.58,124.56h2.753l2.683,10.05h.133l2.691-10.05h2.753l2.673,10.007h.133l2.664-10.007h2.753L560.8,138.245h-2.718l-2.779-9.882h-.205l-2.779,9.882H549.6Z" transform="translate(-530.74 -119.754)" fill="#1d1d1b"/>
        <path id="Path_55150" data-name="Path 55150" d="M626.555,138.065a5.563,5.563,0,0,1-2.352-.485,3.892,3.892,0,0,1-1.662-1.411,4.037,4.037,0,0,1-.611-2.272,3.689,3.689,0,0,1,.445-1.907,3.283,3.283,0,0,1,1.2-1.184,6.221,6.221,0,0,1,1.694-.659,16.658,16.658,0,0,1,1.907-.339c.819-.1,1.486-.173,2-.237a2.865,2.865,0,0,0,1.112-.307.751.751,0,0,0,.347-.7v-.061a2.411,2.411,0,0,0-.656-1.808,2.681,2.681,0,0,0-1.947-.64,3.459,3.459,0,0,0-2.115.592,3.182,3.182,0,0,0-1.064,1.315l-2.5-.571a4.823,4.823,0,0,1,1.3-2.019,5.316,5.316,0,0,1,1.982-1.123,7.852,7.852,0,0,1,2.36-.352,8.544,8.544,0,0,1,1.742.192,5.229,5.229,0,0,1,1.728.7,3.855,3.855,0,0,1,1.323,1.448,5.047,5.047,0,0,1,.517,2.438v9.087h-2.6v-1.872H630.6a3.848,3.848,0,0,1-.776,1.016,4.122,4.122,0,0,1-1.328.829,5.178,5.178,0,0,1-1.942.331Zm.579-2.139a3.859,3.859,0,0,0,1.894-.437,3.094,3.094,0,0,0,1.2-1.144,2.948,2.948,0,0,0,.413-1.52v-1.763a1.375,1.375,0,0,1-.547.264,7.493,7.493,0,0,1-.923.205q-.516.084-1.008.152l-.819.112a6.555,6.555,0,0,0-1.411.331,2.43,2.43,0,0,0-1.016.664,1.669,1.669,0,0,0-.379,1.144,1.7,1.7,0,0,0,.731,1.494,3.207,3.207,0,0,0,1.862.5Z" transform="translate(-586.726 -119.27)" fill="#1d1d1b"/>
        <path id="Path_55151" data-name="Path 55151" d="M675.053,142.888v-18.82h2.6v2.219h.224a7.409,7.409,0,0,1,.667-.99,3.863,3.863,0,0,1,1.211-.984,4.269,4.269,0,0,1,2.048-.424,5.352,5.352,0,0,1,2.958.838,5.651,5.651,0,0,1,2.046,2.414,10.1,10.1,0,0,1,.005,7.6,5.747,5.747,0,0,1-2.032,2.432,5.238,5.238,0,0,1-2.95.851,4.311,4.311,0,0,1-2.035-.419,3.9,3.9,0,0,1-1.235-.979,7.435,7.435,0,0,1-.686-1h-.16v7.263H675.05Zm2.611-11.976a7,7,0,0,0,.419,2.531,3.8,3.8,0,0,0,1.211,1.7,3.082,3.082,0,0,0,1.942.611,3.167,3.167,0,0,0,2-.637,3.943,3.943,0,0,0,1.216-1.734,7.535,7.535,0,0,0,.008-4.9,3.778,3.778,0,0,0-1.211-1.7,3.188,3.188,0,0,0-2.008-.624,3.115,3.115,0,0,0-1.955.6,3.658,3.658,0,0,0-1.208,1.667,6.921,6.921,0,0,0-.411,2.494Z" transform="translate(-625.677 -119.262)" fill="#1d1d1b"/>
      </g>
      <g id="Group_147485" data-name="Group 147485">
        <path id="Path_55152" data-name="Path 55152" d="M500.617,111.578a2.626,2.626,0,0,0-1.176-1.966,4.532,4.532,0,0,0-2.6-.7,4.892,4.892,0,0,0-1.942.352,2.988,2.988,0,0,0-1.27.963,2.288,2.288,0,0,0-.451,1.384,2.006,2.006,0,0,0,.307,1.123,2.608,2.608,0,0,0,.811.789,5.572,5.572,0,0,0,1.083.525c.387.139.758.253,1.115.344l1.782.464a13.5,13.5,0,0,1,1.79.579,7.193,7.193,0,0,1,1.7.963,4.631,4.631,0,0,1,1.27,1.48,4.322,4.322,0,0,1,.485,2.112,4.866,4.866,0,0,1-.8,2.753,5.383,5.383,0,0,1-2.307,1.9,9.951,9.951,0,0,1-7.2.045,5.478,5.478,0,0,1-2.344-1.848A5.309,5.309,0,0,1,489.94,120H492.7a2.785,2.785,0,0,0,.645,1.643,3.358,3.358,0,0,0,1.454.971,5.767,5.767,0,0,0,1.947.317,5.47,5.47,0,0,0,2.08-.371,3.412,3.412,0,0,0,1.438-1.035,2.436,2.436,0,0,0,.525-1.555,1.92,1.92,0,0,0-.459-1.328,3.519,3.519,0,0,0-1.238-.856,12.334,12.334,0,0,0-1.76-.6l-2.155-.587a8.35,8.35,0,0,1-3.47-1.755,3.931,3.931,0,0,1-1.278-3.065,4.552,4.552,0,0,1,.856-2.753,5.627,5.627,0,0,1,2.318-1.83,7.959,7.959,0,0,1,3.3-.656,7.822,7.822,0,0,1,3.275.651,5.527,5.527,0,0,1,2.24,1.787,4.538,4.538,0,0,1,.856,2.606h-2.654Z" transform="translate(-489.94 -106.54)" fill="#fff"/>
        <path id="Path_55153" data-name="Path 55153" d="M549.607,138.245,545.58,124.56h2.753l2.683,10.05h.133l2.691-10.05h2.753l2.673,10.007h.133l2.664-10.007h2.753L560.8,138.245h-2.718l-2.779-9.882h-.205l-2.779,9.882H549.6Z" transform="translate(-530.74 -119.754)" fill="#fff"/>
        <path id="Path_55154" data-name="Path 55154" d="M626.555,138.065a5.563,5.563,0,0,1-2.352-.485,3.892,3.892,0,0,1-1.662-1.411,4.037,4.037,0,0,1-.611-2.272,3.689,3.689,0,0,1,.445-1.907,3.283,3.283,0,0,1,1.2-1.184,6.221,6.221,0,0,1,1.694-.659,16.658,16.658,0,0,1,1.907-.339c.819-.1,1.486-.173,2-.237a2.865,2.865,0,0,0,1.112-.307.751.751,0,0,0,.347-.7v-.061a2.411,2.411,0,0,0-.656-1.808,2.681,2.681,0,0,0-1.947-.64,3.459,3.459,0,0,0-2.115.592,3.182,3.182,0,0,0-1.064,1.315l-2.5-.571a4.823,4.823,0,0,1,1.3-2.019,5.316,5.316,0,0,1,1.982-1.123,7.852,7.852,0,0,1,2.36-.352,8.544,8.544,0,0,1,1.742.192,5.229,5.229,0,0,1,1.728.7,3.855,3.855,0,0,1,1.323,1.448,5.047,5.047,0,0,1,.517,2.438v9.087h-2.6v-1.872H630.6a3.848,3.848,0,0,1-.776,1.016,4.122,4.122,0,0,1-1.328.829,5.178,5.178,0,0,1-1.942.331Zm.579-2.139a3.859,3.859,0,0,0,1.894-.437,3.094,3.094,0,0,0,1.2-1.144,2.948,2.948,0,0,0,.413-1.52v-1.763a1.375,1.375,0,0,1-.547.264,7.493,7.493,0,0,1-.923.205q-.516.084-1.008.152l-.819.112a6.555,6.555,0,0,0-1.411.331,2.43,2.43,0,0,0-1.016.664,1.669,1.669,0,0,0-.379,1.144,1.7,1.7,0,0,0,.731,1.494,3.207,3.207,0,0,0,1.862.5Z" transform="translate(-586.726 -119.27)" fill="#fff"/>
        <path id="Path_55155" data-name="Path 55155" d="M675.053,142.888v-18.82h2.6v2.219h.224a7.409,7.409,0,0,1,.667-.99,3.863,3.863,0,0,1,1.211-.984,4.269,4.269,0,0,1,2.048-.424,5.352,5.352,0,0,1,2.958.838,5.651,5.651,0,0,1,2.046,2.414,10.1,10.1,0,0,1,.005,7.6,5.747,5.747,0,0,1-2.032,2.432,5.238,5.238,0,0,1-2.95.851,4.311,4.311,0,0,1-2.035-.419,3.9,3.9,0,0,1-1.235-.979,7.435,7.435,0,0,1-.686-1h-.16v7.263H675.05Zm2.611-11.976a7,7,0,0,0,.419,2.531,3.8,3.8,0,0,0,1.211,1.7,3.082,3.082,0,0,0,1.942.611,3.167,3.167,0,0,0,2-.637,3.943,3.943,0,0,0,1.216-1.734,7.535,7.535,0,0,0,.008-4.9,3.778,3.778,0,0,0-1.211-1.7,3.188,3.188,0,0,0-2.008-.624,3.115,3.115,0,0,0-1.955.6,3.658,3.658,0,0,0-1.208,1.667,6.921,6.921,0,0,0-.411,2.494Z" transform="translate(-625.677 -119.262)" fill="#fff"/>
      </g>
    </g>
    <g id="Group_147489" data-name="Group 147489" transform="translate(49.472 53.393)">
      <path id="Path_55156" data-name="Path 55156" d="M160.635,192.275a1.491,1.491,0,0,1-1.054-2.545,6.336,6.336,0,0,0,0-8.962,1.49,1.49,0,1,1,2.107-2.107,9.324,9.324,0,0,1,0,13.173,1.487,1.487,0,0,1-1.054.437Z" transform="translate(-129.893 -144.93)" fill="#5e44ec"/>
      <path id="Path_55157" data-name="Path 55157" d="M156.076,176.477a1.487,1.487,0,0,1-1.054-.437l-1.371-1.371a1.49,1.49,0,1,1,2.107-2.107l1.371,1.371a1.491,1.491,0,0,1-1.054,2.545Z" transform="translate(-125.545 -140.457)" fill="#5e44ec"/>
      <path id="Path_55158" data-name="Path 55158" d="M99.853,202.414a1.487,1.487,0,0,1-1.054-.437l-7.2-7.2a1.49,1.49,0,1,1,2.107-2.107l7.2,7.2a1.491,1.491,0,0,1-1.054,2.545Z" transform="translate(-80.045 -155.203)" fill="#5e44ec"/>
      <path id="Path_55159" data-name="Path 55159" d="M125.21,224.328a9.255,9.255,0,0,1-6.54-2.686,1.49,1.49,0,1,1,2.094-2.12,6.3,6.3,0,0,0,4.449,1.827h.043a6.294,6.294,0,0,0,4.468-1.888,1.49,1.49,0,1,1,2.12,2.094,9.247,9.247,0,0,1-6.569,2.774Z" transform="translate(-99.888 -174.841)" fill="#5e44ec"/>
      <path id="Path_55160" data-name="Path 55160" d="M159.273,154.81a1.487,1.487,0,0,1-1.054-.437,1.877,1.877,0,0,0-2.651,0,1.49,1.49,0,0,1-2.107-2.107,4.858,4.858,0,0,1,6.865,0,1.491,1.491,0,0,1-1.054,2.545Z" transform="translate(-125.405 -124.852)" fill="#5e44ec"/>
      <path id="Path_55161" data-name="Path 55161" d="M152.032,162.037a1.488,1.488,0,0,1-1.062-.443,4.861,4.861,0,0,1,.045-6.865,1.49,1.49,0,0,1,2.094,2.12,1.877,1.877,0,0,0-.019,2.651,1.49,1.49,0,0,1-1.059,2.537Z" transform="translate(-122.874 -127.386)" fill="#5e44ec"/>
      <path id="Path_55162" data-name="Path 55162" d="M183.009,164.771a9.289,9.289,0,0,1-6.588-2.723,1.49,1.49,0,0,1,2.107-2.107,6.336,6.336,0,0,0,8.962,0,1.49,1.49,0,1,1,2.107,2.107A9.284,9.284,0,0,1,183.009,164.771Z" transform="translate(-142.242 -131.203)" fill="#5e44ec"/>
      <path id="Path_55163" data-name="Path 55163" d="M173.779,158.78a1.487,1.487,0,0,1-1.054-.437L171.381,157a1.49,1.49,0,0,1,2.107-2.107l1.344,1.344a1.491,1.491,0,0,1-1.054,2.545Z" transform="translate(-138.546 -127.5)" fill="#5e44ec"/>
      <g id="Group_147488" data-name="Group 147488" transform="translate(0 0)">
        <path id="Path_55164" data-name="Path 55164" d="M204.385,107.4a1.487,1.487,0,0,1-1.054-.437l-5.15-5.15a1.49,1.49,0,0,1,2.107-2.107l5.15,5.15a1.491,1.491,0,0,1-1.054,2.545Z" transform="translate(-158.198 -87.03)" fill="#31d671"/>
        <path id="Path_55165" data-name="Path 55165" d="M218.251,132.625a1.49,1.49,0,0,1-1.048-2.55,6.33,6.33,0,0,0,.061-8.959,1.49,1.49,0,1,1,2.12-2.094A9.315,9.315,0,0,1,219.3,132.2a1.492,1.492,0,0,1-1.046.429Z" transform="translate(-172.141 -101.193)" fill="#31d671"/>
        <g id="Group_147487" data-name="Group 147487">
          <path id="Path_55166" data-name="Path 55166" d="M58.452,92.324A8.974,8.974,0,0,1,52.1,77L67.446,61.651a1.49,1.49,0,0,1,2.107,2.107L54.206,79.105a6,6,0,0,0,8.492,8.49L78.046,72.248a1.49,1.49,0,0,1,2.107,2.107L64.806,89.7a8.921,8.921,0,0,1-6.353,2.622Z" transform="translate(-49.472 -59.129)" fill="#31d671"/>
          <path id="Path_55167" data-name="Path 55167" d="M127.095,58.492a1.487,1.487,0,0,1-1.054-.437,5.763,5.763,0,0,0-8.143,0,1.49,1.49,0,0,1-2.107-2.107,8.749,8.749,0,0,1,12.357,0,1.491,1.491,0,0,1-1.054,2.545Z" transform="translate(-97.783 -53.393)" fill="#31d671"/>
          <path id="Path_55168" data-name="Path 55168" d="M168.343,97.2a1.487,1.487,0,0,1-1.054-.437,6.89,6.89,0,0,0-9.751,0,1.49,1.49,0,0,1-2.107-2.107,9.871,9.871,0,0,1,13.965,0,1.491,1.491,0,0,1-1.054,2.545Z" transform="translate(-126.85 -81.527)" fill="#31d671"/>
          <path id="Path_55169" data-name="Path 55169" d="M109.925,116.336a1.491,1.491,0,0,1-1.054-2.544l12.41-12.41a1.49,1.49,0,1,1,2.107,2.107l-12.41,12.41A1.487,1.487,0,0,1,109.925,116.336Z" transform="translate(-92.709 -88.262)" fill="#31d671"/>
        </g>
      </g>
    </g>
  </g>
</svg>
