<svg width="50" height="50" viewBox="0 0 50 50" fill="none" xmlns="http://www.w3.org/2000/svg">
<path d="M30.5688 47.345C30.2756 47.3449 29.9891 47.2574 29.7454 47.0935C29.5017 46.9297 29.3117 46.6969 29.1995 46.4245C29.0874 46.1521 29.058 45.8524 29.1152 45.5633C29.1723 45.2741 29.3134 45.0085 29.5207 44.8C30.106 44.2116 30.5702 43.513 30.887 42.7442C31.2038 41.9753 31.3668 41.1512 31.3668 40.319C31.3668 39.4867 31.2038 38.6627 30.887 37.8938C30.5702 37.1249 30.106 36.4264 29.5207 35.838C29.3801 35.7003 29.2682 35.5359 29.1914 35.3544C29.1145 35.1728 29.0743 34.9778 29.073 34.7805C29.0718 34.5832 29.1095 34.3876 29.1839 34.2051C29.2584 34.0225 29.3682 33.8567 29.507 33.7172C29.6457 33.5777 29.8106 33.4673 29.9921 33.3924C30.1736 33.3175 30.3681 33.2795 30.5643 33.2808C30.7605 33.2821 30.9545 33.3226 31.135 33.3998C31.3155 33.4771 31.479 33.5897 31.6159 33.731C33.3507 35.479 34.325 37.8478 34.325 40.3175C34.325 42.7872 33.3507 45.1559 31.6159 46.904C31.4784 47.0426 31.315 47.1526 31.1352 47.2276C30.9553 47.3026 30.7625 47.3411 30.5678 47.341L30.5688 47.345Z" fill="#5E44EC"/>
<path d="M30.3588 36.02C30.1641 36.0201 29.9713 35.9816 29.7915 35.9066C29.6116 35.8316 29.4482 35.7216 29.3107 35.583L27.9474 34.212C27.8069 34.0743 27.695 33.9099 27.6181 33.7284C27.5413 33.5469 27.5011 33.3518 27.4998 33.1545C27.4985 32.9572 27.5362 32.7616 27.6107 32.5791C27.6852 32.3965 27.795 32.2307 27.9337 32.0912C28.0724 31.9517 28.2373 31.8413 28.4188 31.7664C28.6004 31.6915 28.7948 31.6535 28.991 31.6548C29.1872 31.6561 29.3812 31.6966 29.5617 31.7739C29.7423 31.8511 29.9057 31.9637 30.0426 32.105L31.4059 33.476C31.6132 33.6845 31.7543 33.9501 31.8114 34.2393C31.8686 34.5284 31.8392 34.8281 31.7271 35.1005C31.6149 35.3729 31.425 35.6057 31.1813 35.7695C30.9375 35.9334 30.651 36.0209 30.3578 36.021L30.3588 36.02Z" fill="#5E44EC"/>
<path d="M19.696 47.211C19.5012 47.2111 19.3084 47.1726 19.1286 47.0976C18.9487 47.0226 18.7854 46.9127 18.6479 46.774L11.4882 39.574C11.3477 39.4363 11.2358 39.2719 11.1589 39.0904C11.0821 38.9089 11.0418 38.7138 11.0406 38.5165C11.0393 38.3192 11.077 38.1236 11.1515 37.9411C11.226 37.7585 11.3358 37.5927 11.4745 37.4532C11.6132 37.3137 11.7781 37.2033 11.9596 37.1284C12.1411 37.0535 12.3356 37.0155 12.5318 37.0168C12.728 37.0181 12.922 37.0586 13.1025 37.1358C13.283 37.2131 13.4465 37.3257 13.5834 37.467L20.7431 44.667C20.9503 44.8755 21.0914 45.1411 21.1486 45.4303C21.2057 45.7194 21.1764 46.0191 21.0642 46.2915C20.952 46.5639 20.7621 46.7967 20.5184 46.9605C20.2747 47.1244 19.9881 47.2119 19.695 47.212L19.696 47.211Z" fill="#5E44EC"/>
<path d="M25.1791 49.487C22.7433 49.4924 20.4046 48.5265 18.6757 46.801C18.5347 46.6641 18.4221 46.5004 18.3444 46.3195C18.2668 46.1385 18.2256 45.9438 18.2232 45.7467C18.2209 45.5496 18.2575 45.354 18.3309 45.1713C18.4042 44.9885 18.5129 44.8222 18.6507 44.6819C18.7884 44.5417 18.9524 44.4304 19.1333 44.3543C19.3141 44.2783 19.5081 44.2391 19.7041 44.239C19.9001 44.2389 20.0942 44.2779 20.2751 44.3538C20.456 44.4297 20.6201 44.5409 20.758 44.681C21.9344 45.8544 23.5252 46.5113 25.1821 46.508H25.2248C26.0528 46.5045 26.8718 46.3358 27.6344 46.0117C28.3971 45.6876 29.0882 45.2146 29.6678 44.62C29.8039 44.4782 29.9667 44.365 30.1466 44.2868C30.3266 44.2087 30.5202 44.1673 30.7161 44.165C30.9121 44.1626 31.1066 44.1994 31.2884 44.2732C31.4701 44.347 31.6355 44.4563 31.775 44.5948C31.9144 44.7333 32.0252 44.8983 32.1008 45.0801C32.1764 45.262 32.2153 45.4571 32.2154 45.6542C32.2155 45.8513 32.1767 46.0465 32.1013 46.2284C32.0258 46.4103 31.9152 46.5754 31.7759 46.714C30.9239 47.5881 29.9077 48.2835 28.7864 48.7597C27.6651 49.2358 26.4609 49.4834 25.2437 49.488L25.1791 49.487Z" fill="#5E44EC"/>
<path d="M33.6771 29.958C33.4824 29.9581 33.2896 29.9196 33.1098 29.8446C32.9299 29.7696 32.7665 29.6596 32.6291 29.521C32.2792 29.1701 31.8052 28.973 31.311 28.973C30.8168 28.973 30.3428 29.1701 29.9929 29.521C29.7138 29.7944 29.3389 29.9463 28.9493 29.9438C28.5597 29.9412 28.1868 29.7844 27.9113 29.5074C27.6357 29.2303 27.4799 28.8553 27.4773 28.4635C27.4748 28.0717 27.6258 27.6946 27.8977 27.414C28.8035 26.5046 30.0311 25.9937 31.311 25.9937C32.5909 25.9937 33.8185 26.5046 34.7243 27.414C34.9315 27.6225 35.0726 27.8881 35.1298 28.1773C35.1869 28.4664 35.1576 28.7661 35.0454 29.0385C34.9332 29.3109 34.7433 29.5437 34.4996 29.7075C34.2559 29.8714 33.9693 29.9589 33.6762 29.959L33.6771 29.958Z" fill="#5E44EC"/>
<path d="M28.9937 34.651C28.7973 34.6514 28.6027 34.6124 28.4214 34.5363C28.2401 34.4603 28.0756 34.3486 27.9377 34.208C27.04 33.2908 26.5405 32.0531 26.5489 30.7662C26.5573 29.4793 27.0728 28.2483 27.9824 27.343C28.263 27.0706 28.6391 26.9204 29.0291 26.9251C29.4191 26.9298 29.7915 27.0889 30.0656 27.3679C30.3397 27.647 30.4933 28.0234 30.4931 28.4156C30.4929 28.8079 30.339 29.1842 30.0647 29.463C29.7132 29.8123 29.5138 30.2876 29.5103 30.7846C29.5067 31.2815 29.6993 31.7596 30.0458 32.114C30.2511 32.323 30.3903 32.5885 30.4461 32.8769C30.5018 33.1653 30.4714 33.4638 30.3589 33.735C30.2464 34.0061 30.0566 34.2377 29.8135 34.4007C29.5705 34.5637 29.2859 34.6508 28.9937 34.651Z" fill="#5E44EC"/>
<path d="M40.5377 33.568C39.3212 33.5703 38.1163 33.3309 36.992 32.8636C35.8678 32.3963 34.8465 31.7103 33.9866 30.845C33.7147 30.5644 33.5637 30.1873 33.5662 29.7955C33.5687 29.4037 33.7246 29.0287 34.0001 28.7516C34.2756 28.4746 34.6486 28.3178 35.0382 28.3152C35.4278 28.3127 35.8027 28.4646 36.0818 28.738C36.6669 29.3266 37.3615 29.7935 38.1261 30.112C38.8906 30.4306 39.7101 30.5945 40.5377 30.5945C41.3653 30.5945 42.1847 30.4306 42.9493 30.112C43.7138 29.7935 44.4085 29.3266 44.9936 28.738C45.1305 28.5967 45.2939 28.4841 45.4745 28.4068C45.655 28.3296 45.849 28.2891 46.0452 28.2878C46.2414 28.2865 46.4358 28.3245 46.6173 28.3994C46.7988 28.4743 46.9638 28.5847 47.1025 28.7242C47.2412 28.8637 47.351 29.0296 47.4255 29.2121C47.5 29.3946 47.5377 29.5902 47.5364 29.7875C47.5351 29.9848 47.4949 30.1799 47.4181 30.3614C47.3412 30.5429 47.2293 30.7073 47.0888 30.845C46.2291 31.7106 45.2077 32.3967 44.0835 32.864C42.9592 33.3313 41.7542 33.5706 40.5377 33.568Z" fill="#5E44EC"/>
<path d="M35.0345 31.28C34.8398 31.2801 34.647 31.2416 34.4671 31.1666C34.2872 31.0916 34.1239 30.9817 33.9864 30.843L32.6499 29.5C32.378 29.2194 32.227 28.8423 32.2295 28.4505C32.2321 28.0587 32.3879 27.6837 32.6634 27.4066C32.939 27.1296 33.3119 26.9728 33.7015 26.9702C34.0911 26.9677 34.4661 27.1196 34.7451 27.393L36.0816 28.737C36.2888 28.9455 36.4299 29.2111 36.4871 29.5003C36.5442 29.7894 36.5149 30.0891 36.4027 30.3615C36.2905 30.6339 36.1006 30.8667 35.8569 31.0305C35.6132 31.1944 35.3266 31.2819 35.0335 31.282L35.0345 31.28Z" fill="#5E44EC"/>
<path d="M45.9273 20.37C45.7326 20.3701 45.5398 20.3316 45.3599 20.2566C45.1801 20.1816 45.0167 20.0716 44.8792 19.933L39.7581 14.783C39.4862 14.5024 39.3351 14.1253 39.3377 13.7335C39.3402 13.3417 39.4961 12.9667 39.7716 12.6896C40.0471 12.4126 40.42 12.2558 40.8097 12.2532C41.1993 12.2507 41.5742 12.4026 41.8533 12.676L46.9744 17.826C47.1816 18.0345 47.3228 18.3001 47.3799 18.5893C47.4371 18.8784 47.4077 19.1781 47.2955 19.4505C47.1834 19.7229 46.9934 19.9557 46.7497 20.1195C46.506 20.2834 46.2195 20.3709 45.9263 20.371L45.9273 20.37Z" fill="#31D671"/>
<path d="M45.8507 31.432C45.5568 31.4322 45.2695 31.3444 45.0253 31.18C44.7811 31.0155 44.5911 30.7817 44.4794 30.5084C44.3677 30.235 44.3393 29.9344 44.3979 29.6448C44.4565 29.3552 44.5995 29.0897 44.8085 28.882C45.3981 28.2981 45.8674 27.603 46.1895 26.8365C46.5117 26.0701 46.6804 25.2472 46.6861 24.4151C46.6917 23.583 46.5341 22.758 46.2224 21.9872C45.9106 21.2163 45.4508 20.5149 44.8692 19.923C44.7299 19.7844 44.6193 19.6193 44.5438 19.4374C44.4684 19.2555 44.4296 19.0603 44.4297 18.8632C44.4298 18.6661 44.4688 18.471 44.5444 18.2891C44.62 18.1073 44.7307 17.9423 44.8701 17.8038C45.0096 17.6653 45.175 17.556 45.3567 17.4822C45.5385 17.4084 45.733 17.3716 45.929 17.374C46.1249 17.3763 46.3185 17.4177 46.4985 17.4958C46.6784 17.5739 46.8412 17.6872 46.9773 17.829C47.8327 18.6996 48.5091 19.7311 48.9678 20.8647C49.4266 21.9982 49.6587 23.2116 49.6509 24.4354C49.6432 25.6592 49.3957 26.8695 48.9226 27.9971C48.4495 29.1247 47.7601 30.1475 46.8938 31.007C46.6165 31.2817 46.2429 31.4357 45.8537 31.436L45.8507 31.432Z" fill="#31D671"/>
<path d="M8.92865 33.195C7.16226 33.1971 5.43497 32.6721 3.96555 31.6863C2.49613 30.7005 1.35068 29.2983 0.674295 27.6573C-0.00209243 26.0164 -0.178993 24.2105 0.165997 22.4683C0.510987 20.7262 1.36234 19.1262 2.61225 17.871L17.8723 2.522C18.1513 2.24857 18.5262 2.09668 18.9159 2.09923C19.3055 2.10178 19.6784 2.25855 19.9539 2.53561C20.2294 2.81266 20.3853 3.1877 20.3879 3.57951C20.3904 3.97131 20.2394 4.34836 19.9675 4.62899L4.70645 19.976C3.58691 21.1021 2.95807 22.6293 2.95825 24.2217C2.95844 25.8141 3.58764 27.3412 4.70744 28.467C5.82724 29.5928 7.34591 30.2252 8.92936 30.225C10.5128 30.2249 12.0313 29.5921 13.1509 28.466L28.4129 13.119C28.6919 12.8456 29.0669 12.6937 29.4565 12.6962C29.8461 12.6988 30.219 12.8556 30.4945 13.1326C30.77 13.4097 30.9259 13.7847 30.9285 14.1765C30.931 14.5683 30.78 14.9454 30.5081 15.226L15.2471 30.571C14.4187 31.4064 13.4339 32.0683 12.3495 32.5184C11.2651 32.9684 10.1027 33.1977 8.92965 33.193L8.92865 33.195Z" fill="#31D671"/>
<path d="M29.1467 5.099C28.952 5.09914 28.7592 5.06061 28.5793 4.98561C28.3994 4.91062 28.2361 4.80065 28.0986 4.662C27.0242 3.5834 25.568 2.97761 24.0499 2.97761C22.5318 2.97761 21.0756 3.5834 20.0012 4.662C19.7222 4.93543 19.3472 5.08731 18.9576 5.08477C18.568 5.08222 18.1951 4.92544 17.9196 4.64838C17.6441 4.37133 17.4882 3.99629 17.4856 3.60448C17.4831 3.21268 17.6341 2.83564 17.906 2.555C19.5369 0.919119 21.7464 0.000442505 24.0499 0.000442505C26.3534 0.000442505 28.5629 0.919119 30.1938 2.555C30.401 2.76352 30.5421 3.02914 30.5993 3.31828C30.6564 3.60743 30.6271 3.90713 30.5149 4.1795C30.4028 4.45187 30.2128 4.68469 29.9691 4.84853C29.7254 5.01237 29.4388 5.09988 29.1457 5.1L29.1467 5.099Z" fill="#31D671"/>
<path d="M41.2596 15.673C41.0649 15.6731 40.8721 15.6346 40.6922 15.5596C40.5123 15.4846 40.349 15.3746 40.2115 15.236C39.5752 14.5951 38.8194 14.0867 37.9875 13.7399C37.1556 13.393 36.2639 13.2144 35.3633 13.2144C34.4627 13.2144 33.571 13.393 32.7391 13.7399C31.9072 14.0867 31.1515 14.5951 30.5151 15.236C30.2361 15.5094 29.8611 15.6613 29.4715 15.6588C29.0819 15.6562 28.709 15.4994 28.4335 15.2224C28.158 14.9453 28.0021 14.5703 27.9995 14.1785C27.997 13.7867 28.148 13.4096 28.4199 13.129C29.3315 12.2116 30.4139 11.4838 31.6053 10.9873C32.7967 10.4908 34.0737 10.2352 35.3633 10.2352C36.6529 10.2352 37.93 10.4908 39.1213 10.9873C40.3127 11.4838 41.3951 12.2116 42.3067 13.129C42.5139 13.3375 42.655 13.6031 42.7122 13.8923C42.7693 14.1814 42.74 14.4811 42.6278 14.7535C42.5157 15.0259 42.3257 15.2587 42.082 15.4225C41.8383 15.5864 41.5517 15.6739 41.2586 15.674L41.2596 15.673Z" fill="#31D671"/>
<path d="M17.1185 28.074C16.8256 28.0737 16.5393 27.9861 16.2958 27.8223C16.0523 27.6585 15.8625 27.4259 15.7504 27.1537C15.6382 26.8815 15.6088 26.5821 15.6658 26.2931C15.7227 26.0041 15.8635 25.7386 16.0704 25.53L28.4109 13.12C28.5478 12.9787 28.7113 12.8661 28.8918 12.7888C29.0723 12.7116 29.2663 12.6711 29.4625 12.6698C29.6587 12.6685 29.8532 12.7065 30.0347 12.7814C30.2162 12.8563 30.3811 12.9667 30.5198 13.1062C30.6585 13.2457 30.7683 13.4116 30.8428 13.5941C30.9173 13.7766 30.955 13.9722 30.9537 14.1695C30.9525 14.3668 30.9122 14.5619 30.8354 14.7434C30.7585 14.9249 30.6466 15.0893 30.5061 15.227L18.1656 27.637C18.0282 27.7755 17.865 27.8854 17.6854 27.9604C17.5057 28.0354 17.3131 28.074 17.1185 28.074Z" fill="#31D671"/>
</svg>
